#!OML:ASF H:\Pregnant\Project 1\Capture day 1\Session 1\femalepreg.ASF
:FULLY-SPECIFIED
:DEGREES
512
root 8.56496 15.5548 18.8643 -169.482 -22.6425 -173.935
lowerback -16.6194 5.21147 4.99604
upperback -5.91585 5.40695 -0.335266
thorax 3.46463 2.34916 -2.11999
lowerneck -4.84647 18.4952 19.5805
upperneck 14.1119 25.1917 -12.6294
head 9.30161 12.1554 -3.94401
rclavicle 1.06996e-013 6.04305e-014
rhumerus -46.0817 13.0742 -90.8911
rradius 111.754
rwrist -7.93226
rhand -25.1162 -7.6287
rfingers 7.12502
rthumb 1.39933 -37.6039
lclavicle 1.06996e-013 6.04305e-014
lhumerus -29.0044 -38.6929 94.769
lradius 101.165
lwrist 70.0586
lhand -38.0984 8.51368
lfingers 7.12502
lthumb -11.1342 38.1983
rfemur -1.00497 13.2708 16.1686
rtibia 3.97569e-014
rfoot -4.61745 -23.0698
rtoes -18.4052
lfemur -23.7159 -12.7304 1.92898
ltibia 19.8128
lfoot -8.99121 9.16311
ltoes -33.0118
513
root 8.55381 15.5565 18.8675 -169.374 -22.6207 -174.023
lowerback -16.4806 5.08533 4.8211
upperback -5.87988 5.28696 -0.340733
thorax 3.40598 2.29534 -2.0615
lowerneck -5.05273 18.5028 19.4753
upperneck 14.1523 25.1741 -12.5815
head 9.32674 12.1352 -3.9016
rclavicle -9.69075e-015 -2.5842e-014
rhumerus -46.2038 12.8768 -90.6355
rradius 111.684
rwrist -8.35976
rhand -25.0512 -7.34025
rfingers 7.12502
rthumb 1.46207 -37.315
lclavicle -9.69075e-015 -2.5842e-014
lhumerus -28.8202 -38.782 94.7768
lradius 101.018
lwrist 70.0989
lhand -37.454 8.76191
lfingers 7.12502
lthumb -10.5126 38.479
rfemur -1.08798 13.2485 16.0124
rtibia 0
rfoot -4.61368 -23.058
rtoes -18.4556
lfemur -23.7823 -12.6989 1.79787
ltibia 19.7987
lfoot -8.96177 9.15049
ltoes -32.9757
514
root 8.54227 15.5582 18.8707 -169.27 -22.5993 -174.115
lowerback -16.3348 4.95371 4.63719
upperback -5.84431 5.16093 -0.344263
thorax 3.34232 2.23854 -1.99711
lowerneck -5.21959 18.5062 19.3945
upperneck 14.1822 25.1568 -12.5509
head 9.34745 12.1173 -3.87097
rclavicle -1.83379e-014 -8.74653e-015
rhumerus -46.3199 12.7026 -90.3899
rradius 111.621
rwrist -8.86042
rhand -24.9888 -7.03793
rfingers 7.12502
rthumb 1.52243 -37.0122
lclavicle -1.83379e-014 -8.74653e-015
lhumerus -28.6456 -38.8471 94.7833
lradius 100.854
lwrist 70.1243
lhand -36.8794 8.91262
lfingers 7.12502
lthumb -9.95828 38.6571
rfemur -1.16548 13.2247 15.8517
rtibia 2.06736e-014
rfoot -4.61157 -23.0452
rtoes -18.5092
lfemur -23.8446 -12.6662 1.65845
ltibia 19.7862
lfoot -8.93464 9.13445
ltoes -32.9345
515
root 8.53054 15.5599 18.874 -169.165 -22.5795 -174.214
lowerback -16.1855 4.81467 4.44112
upperback -5.80435 5.02687 -0.344587
thorax 3.28018 2.1782 -1.92361
lowerneck -5.35405 18.5062 19.3313
upperneck 14.1964 25.1409 -12.5418
head 9.363 12.101 -3.85205
rclavicle -4.33848e-014 -4.37326e-015
rhumerus -46.4187 12.5526 -90.1462
rradius 111.566
rwrist -9.4111
rhand -24.9218 -6.72277
rfingers 7.12502
rthumb 1.5871 -36.6966
lclavicle -4.33848e-014 -4.37326e-015
lhumerus -28.465 -38.885 94.7804
lradius 100.675
lwrist 70.1276
lhand -36.4051 8.93847
lfingers 7.12502
lthumb -9.50068 38.7043
rfemur -1.2397 13.1979 15.6844
rtibia -2.22639e-014
rfoot -4.60241 -23.0293
rtoes -18.597
lfemur -23.9082 -12.6321 1.50979
ltibia 19.7783
lfoot -8.90824 9.11419
ltoes -32.896
516
root 8.51858 15.5614 18.8775 -169.061 -22.5563 -174.315
lowerback -16.0172 4.68608 4.2571
upperback -5.77651 4.9055 -0.365497
thorax 3.19942 2.12322 -1.87684
lowerneck -5.43625 18.4882 19.3173
upperneck 14.1937 25.1039 -12.5501
head 9.36963 12.0791 -3.85339
rclavicle 5.66039e-014 4.77083e-015
rhumerus -46.5284 12.3759 -89.9285
rradius 111.52
rwrist -9.97497
rhand -24.8592 -6.42036
rfingers 7.12502
rthumb 1.64755 -36.3937
lclavicle 5.66039e-014 4.77083e-015
lhumerus -28.3145 -38.9347 94.7675
lradius 100.488
lwrist 70.1053
lhand -36.0187 8.87914
lfingers 7.12502
lthumb -9.12787 38.6616
rfemur -1.3129 13.1737 15.5137
rtibia 9.54166e-015
rfoot -4.58683 -23.0116
rtoes -18.715
lfemur -23.9746 -12.594 1.35625
ltibia 19.781
lfoot -8.88442 9.09169
ltoes -32.8589
517
root 8.50656 15.5626 18.8815 -168.956 -22.5259 -174.411
lowerback -15.8416 4.56389 4.07602
upperback -5.75166 4.79164 -0.389585
thorax 3.11302 2.0717 -1.83343
lowerneck -5.50887 18.4603 19.3075
upperneck 14.1926 25.0547 -12.5612
head 9.37417 12.052 -3.85954
rclavicle 8.49804e-015 6.36111e-015
rhumerus -46.6279 12.194 -89.7122
rradius 111.479
rwrist -10.5274
rhand -24.7918 -6.12783
rfingers 7.12502
rthumb 1.71262 -36.1007
lclavicle 8.49804e-015 6.36111e-015
lhumerus -28.1717 -38.9702 94.7465
lradius 100.293
lwrist 70.0511
lhand -35.7013 8.76573
lfingers 7.12502
lthumb -8.82157 38.5613
rfemur -1.39353 13.1563 15.3436
rtibia 1.11319e-014
rfoot -4.55318 -22.9923
rtoes -18.8779
lfemur -24.0514 -12.5466 1.20567
ltibia 19.7997
lfoot -8.86715 9.06887
ltoes -32.8136
518
root 8.49446 15.5636 18.8861 -168.848 -22.4875 -174.5
lowerback -15.6517 4.45822 3.91696
upperback -5.73379 4.69669 -0.430903
thorax 3.01633 2.02896 -1.81712
lowerneck -5.58682 18.4168 19.3083
upperneck 14.1992 24.9808 -12.5675
head 9.37914 12.014 -3.86993
rclavicle 5.46658e-016 1.39149e-014
rhumerus -46.7177 11.9757 -89.5029
rradius 111.439
rwrist -11.0398
rhand -24.7175 -5.85187
rfingers 7.12502
rthumb 1.78439 -35.8242
lclavicle 5.46658e-016 1.39149e-014
lhumerus -28.0317 -39.0138 94.7017
lradius 100.093
lwrist 69.9695
lhand -35.4107 8.67363
lfingers 7.12502
lthumb -8.54117 38.4809
rfemur -1.48537 13.1474 15.1771
rtibia 1.59028e-015
rfoot -4.51493 -22.9722
rtoes -19.0503
lfemur -24.1443 -12.4879 1.06282
ltibia 19.8406
lfoot -8.85558 9.04732
ltoes -32.7757
